<svg width="318" height="62" viewBox="0 0 318 62" fill="none" xmlns="http://www.w3.org/2000/svg">
<g filter="url(#filter0_iiii_51_131)">
<g clip-path="url(#clip0_51_131)">
<rect width="318" height="62" rx="31" fill="#ECE2CD"/>
<g filter="url(#filter1_dd_51_131)">
<rect x="22" y="10" width="115" height="41" rx="20.5" fill="#F5F5FA"/>
<path d="M48 35V29H45V27H53V29H50V35H48ZM38 42V36H40V26H38V20H44V22H54V20H60V26H58V36H60V42H54V40H44V42H38ZM44 38H54V36H56V26H54V24H44V26H42V36H44V38ZM40 24H42V22H40V24ZM56 24H58V22H56V24ZM56 40H58V38H56V40ZM40 40H42V38H40V40Z" fill="#765946"/>
<path d="M71.8523 25.5881V22.5455H86.1875V25.5881H80.8438V40H77.196V25.5881H71.8523ZM92.5476 40.2557C91.201 40.2557 90.0419 39.983 89.0703 39.4375C88.1044 38.8864 87.3601 38.108 86.8374 37.1023C86.3146 36.0909 86.0533 34.8949 86.0533 33.5142C86.0533 32.1676 86.3146 30.9858 86.8374 29.9688C87.3601 28.9517 88.0959 28.1591 89.0447 27.5909C89.9993 27.0227 91.1186 26.7386 92.4027 26.7386C93.2663 26.7386 94.0703 26.8778 94.8146 27.1562C95.5646 27.429 96.218 27.8409 96.7749 28.392C97.3374 28.9432 97.7749 29.6364 98.0874 30.4716C98.3999 31.3011 98.5561 32.2727 98.5561 33.3864V34.3835H87.5021V32.1335H95.1385C95.1385 31.6108 95.0249 31.1477 94.7976 30.7443C94.5703 30.3409 94.255 30.0256 93.8516 29.7983C93.4538 29.5653 92.9908 29.4489 92.4624 29.4489C91.9112 29.4489 91.4226 29.5767 90.9964 29.8324C90.576 30.0824 90.2464 30.4205 90.0078 30.8466C89.7692 31.267 89.647 31.7358 89.6413 32.2528V34.392C89.6413 35.0398 89.7607 35.5994 89.9993 36.071C90.2436 36.5426 90.5874 36.9062 91.0305 37.1619C91.4737 37.4176 91.9993 37.5455 92.6072 37.5455C93.0107 37.5455 93.38 37.4886 93.7152 37.375C94.0504 37.2614 94.3374 37.0909 94.576 36.8636C94.8146 36.6364 94.9964 36.358 95.1214 36.0284L98.4794 36.25C98.3089 37.0568 97.9595 37.7614 97.4311 38.3636C96.9084 38.9602 96.2322 39.4261 95.4027 39.7614C94.5788 40.0909 93.6271 40.2557 92.5476 40.2557ZM103.725 26.9091L106.129 31.4858L108.592 26.9091H112.316L108.523 33.4545L112.418 40H108.711L106.129 35.4744L103.589 40H99.8388L103.725 33.4545L99.9751 26.9091H103.725ZM121.435 26.9091V29.6364H113.552V26.9091H121.435ZM115.342 23.7727H118.972V35.9773C118.972 36.3125 119.023 36.5739 119.126 36.7614C119.228 36.9432 119.37 37.071 119.552 37.1449C119.739 37.2187 119.955 37.2557 120.2 37.2557C120.37 37.2557 120.54 37.2415 120.711 37.2131C120.881 37.179 121.012 37.1534 121.103 37.1364L121.674 39.8381C121.492 39.8949 121.237 39.9602 120.907 40.0341C120.577 40.1136 120.177 40.1619 119.705 40.179C118.83 40.2131 118.063 40.0966 117.404 39.8295C116.751 39.5625 116.242 39.1477 115.879 38.5852C115.515 38.0227 115.336 37.3125 115.342 36.4545V23.7727Z" fill="#765946"/>
</g>
<path d="M201 29.025C199.8 29.025 198.65 28.7957 197.55 28.337C196.45 27.879 195.475 27.225 194.625 26.375C193.775 25.525 193.121 24.55 192.663 23.45C192.204 22.35 191.975 21.2 191.975 20H193.975C193.975 20.95 194.15 21.85 194.5 22.7C194.85 23.55 195.358 24.3083 196.025 24.975C196.692 25.6417 197.45 26.154 198.3 26.512C199.15 26.8707 200.05 27.05 201 27.05V29.025ZM201 25.05C200.317 25.05 199.671 24.925 199.062 24.675C198.454 24.425 197.908 24.0583 197.425 23.575C196.942 23.0917 196.575 22.5457 196.325 21.937C196.075 21.329 195.95 20.6833 195.95 20H197.925C197.925 20.4167 198.004 20.8127 198.163 21.188C198.321 21.5627 198.542 21.8917 198.825 22.175C199.108 22.4583 199.437 22.675 199.812 22.825C200.187 22.975 200.583 23.05 201 23.05V25.05ZM188 32C186.9 32 185.958 31.6083 185.175 30.825C184.392 30.0417 184 29.1 184 28C184 26.9 184.392 25.9583 185.175 25.175C185.958 24.3917 186.9 24 188 24C189.1 24 190.042 24.3917 190.825 25.175C191.608 25.9583 192 26.9 192 28C192 29.1 191.608 30.0417 190.825 30.825C190.042 31.6083 189.1 32 188 32ZM180 40V37.2C180 36.65 180.142 36.1333 180.425 35.65C180.708 35.1667 181.1 34.8 181.6 34.55C182.45 34.1167 183.408 33.75 184.475 33.45C185.542 33.15 186.717 33 188 33C189.283 33 190.458 33.15 191.525 33.45C192.592 33.75 193.55 34.1167 194.4 34.55C194.9 34.8 195.292 35.1667 195.575 35.65C195.858 36.1333 196 36.65 196 37.2V40H180Z" fill="#765946"/>
<path d="M216.526 40H212.571L218.597 22.5455H223.352L229.369 40H225.415L221.043 26.5341H220.906L216.526 40ZM216.278 33.1392H225.619V36.0199H216.278V33.1392ZM239.797 34.4261V26.9091H243.428V40H239.942V37.6222H239.805C239.51 38.3892 239.018 39.0057 238.331 39.4716C237.649 39.9375 236.817 40.1705 235.834 40.1705C234.959 40.1705 234.189 39.9716 233.524 39.5739C232.859 39.1761 232.339 38.6108 231.964 37.8778C231.595 37.1449 231.408 36.267 231.402 35.2443V26.9091H235.033V34.5966C235.038 35.3693 235.246 35.9801 235.655 36.429C236.064 36.8778 236.612 37.1023 237.3 37.1023C237.737 37.1023 238.146 37.0028 238.527 36.804C238.908 36.5994 239.214 36.2983 239.447 35.9006C239.686 35.5028 239.803 35.0114 239.797 34.4261ZM251.156 40.2131C250.161 40.2131 249.261 39.9574 248.454 39.446C247.653 38.929 247.016 38.1705 246.545 37.1705C246.079 36.1648 245.846 34.9318 245.846 33.4716C245.846 31.9716 246.087 30.7244 246.57 29.7301C247.053 28.7301 247.695 27.983 248.496 27.4886C249.303 26.9886 250.187 26.7386 251.147 26.7386C251.88 26.7386 252.491 26.8636 252.979 27.1136C253.474 27.358 253.871 27.6648 254.173 28.0341C254.479 28.3977 254.712 28.7557 254.871 29.108H254.982V22.5455H258.604V40H255.025V37.9034H254.871C254.701 38.267 254.46 38.6278 254.147 38.9858C253.84 39.3381 253.44 39.6307 252.945 39.8636C252.457 40.0966 251.86 40.2131 251.156 40.2131ZM252.306 37.3239C252.891 37.3239 253.386 37.1648 253.789 36.8466C254.198 36.5227 254.511 36.071 254.727 35.4915C254.948 34.9119 255.059 34.233 255.059 33.4545C255.059 32.6761 254.951 32 254.735 31.4261C254.519 30.8523 254.207 30.4091 253.798 30.0966C253.388 29.7841 252.891 29.6278 252.306 29.6278C251.71 29.6278 251.207 29.7898 250.798 30.1136C250.388 30.4375 250.079 30.8864 249.869 31.4602C249.658 32.0341 249.553 32.6989 249.553 33.4545C249.553 34.2159 249.658 34.8892 249.869 35.4744C250.085 36.054 250.394 36.5085 250.798 36.8381C251.207 37.1619 251.71 37.3239 252.306 37.3239ZM261.589 40V26.9091H265.22V40H261.589ZM263.413 25.2216C262.874 25.2216 262.411 25.0426 262.024 24.6847C261.643 24.321 261.453 23.8864 261.453 23.3807C261.453 22.8807 261.643 22.4517 262.024 22.0938C262.411 21.7301 262.874 21.5483 263.413 21.5483C263.953 21.5483 264.413 21.7301 264.794 22.0938C265.18 22.4517 265.374 22.8807 265.374 23.3807C265.374 23.8864 265.18 24.321 264.794 24.6847C264.413 25.0426 263.953 25.2216 263.413 25.2216ZM274.043 40.2557C272.719 40.2557 271.575 39.9744 270.609 39.4119C269.648 38.8437 268.907 38.054 268.384 37.0426C267.862 36.0256 267.6 34.8466 267.6 33.5057C267.6 32.1534 267.862 30.9716 268.384 29.9602C268.907 28.9432 269.648 28.1534 270.609 27.5909C271.575 27.0227 272.719 26.7386 274.043 26.7386C275.367 26.7386 276.509 27.0227 277.469 27.5909C278.435 28.1534 279.18 28.9432 279.702 29.9602C280.225 30.9716 280.487 32.1534 280.487 33.5057C280.487 34.8466 280.225 36.0256 279.702 37.0426C279.18 38.054 278.435 38.8437 277.469 39.4119C276.509 39.9744 275.367 40.2557 274.043 40.2557ZM274.06 37.4432C274.663 37.4432 275.165 37.2727 275.569 36.9318C275.972 36.5852 276.276 36.1136 276.481 35.517C276.691 34.9205 276.796 34.2415 276.796 33.4801C276.796 32.7188 276.691 32.0398 276.481 31.4432C276.276 30.8466 275.972 30.375 275.569 30.0284C275.165 29.6818 274.663 29.5085 274.06 29.5085C273.452 29.5085 272.941 29.6818 272.526 30.0284C272.117 30.375 271.808 30.8466 271.597 31.4432C271.393 32.0398 271.29 32.7188 271.29 33.4801C271.29 34.2415 271.393 34.9205 271.597 35.517C271.808 36.1136 272.117 36.5852 272.526 36.9318C272.941 37.2727 273.452 37.4432 274.06 37.4432Z" fill="#765946"/>
</g>
</g>
<defs>
<filter id="filter0_iiii_51_131" x="-5" y="-5" width="328" height="72" filterUnits="userSpaceOnUse" color-interpolation-filters="sRGB">
<feFlood flood-opacity="0" result="BackgroundImageFix"/>
<feBlend mode="normal" in="SourceGraphic" in2="BackgroundImageFix" result="shape"/>
<feColorMatrix in="SourceAlpha" type="matrix" values="0 0 0 0 0 0 0 0 0 0 0 0 0 0 0 0 0 0 127 0" result="hardAlpha"/>
<feOffset dx="-5" dy="-5"/>
<feGaussianBlur stdDeviation="5"/>
<feComposite in2="hardAlpha" operator="arithmetic" k2="-1" k3="1"/>
<feColorMatrix type="matrix" values="0 0 0 0 0.995833 0 0 0 0 0.979789 0 0 0 0 0.947702 0 0 0 1 0"/>
<feBlend mode="normal" in2="shape" result="effect1_innerShadow_51_131"/>
<feColorMatrix in="SourceAlpha" type="matrix" values="0 0 0 0 0 0 0 0 0 0 0 0 0 0 0 0 0 0 127 0" result="hardAlpha"/>
<feOffset dx="5" dy="5"/>
<feGaussianBlur stdDeviation="5"/>
<feComposite in2="hardAlpha" operator="arithmetic" k2="-1" k3="1"/>
<feColorMatrix type="matrix" values="0 0 0 0 0.996078 0 0 0 0 0.980392 0 0 0 0 0.94902 0 0 0 0.5 0"/>
<feBlend mode="normal" in2="effect1_innerShadow_51_131" result="effect2_innerShadow_51_131"/>
<feColorMatrix in="SourceAlpha" type="matrix" values="0 0 0 0 0 0 0 0 0 0 0 0 0 0 0 0 0 0 127 0" result="hardAlpha"/>
<feOffset dx="2" dy="2"/>
<feGaussianBlur stdDeviation="2"/>
<feComposite in2="hardAlpha" operator="arithmetic" k2="-1" k3="1"/>
<feColorMatrix type="matrix" values="0 0 0 0 0.666667 0 0 0 0 0.666667 0 0 0 0 0.8 0 0 0 0.25 0"/>
<feBlend mode="normal" in2="effect2_innerShadow_51_131" result="effect3_innerShadow_51_131"/>
<feColorMatrix in="SourceAlpha" type="matrix" values="0 0 0 0 0 0 0 0 0 0 0 0 0 0 0 0 0 0 127 0" result="hardAlpha"/>
<feOffset dx="-2" dy="-2"/>
<feGaussianBlur stdDeviation="2"/>
<feComposite in2="hardAlpha" operator="arithmetic" k2="-1" k3="1"/>
<feColorMatrix type="matrix" values="0 0 0 0 1 0 0 0 0 1 0 0 0 0 1 0 0 0 0.5 0"/>
<feBlend mode="normal" in2="effect3_innerShadow_51_131" result="effect4_innerShadow_51_131"/>
</filter>
<filter id="filter1_dd_51_131" x="7" y="-5" width="145" height="71" filterUnits="userSpaceOnUse" color-interpolation-filters="sRGB">
<feFlood flood-opacity="0" result="BackgroundImageFix"/>
<feColorMatrix in="SourceAlpha" type="matrix" values="0 0 0 0 0 0 0 0 0 0 0 0 0 0 0 0 0 0 127 0" result="hardAlpha"/>
<feOffset dx="-5" dy="-5"/>
<feGaussianBlur stdDeviation="5"/>
<feColorMatrix type="matrix" values="0 0 0 0 1 0 0 0 0 1 0 0 0 0 1 0 0 0 1 0"/>
<feBlend mode="normal" in2="BackgroundImageFix" result="effect1_dropShadow_51_131"/>
<feColorMatrix in="SourceAlpha" type="matrix" values="0 0 0 0 0 0 0 0 0 0 0 0 0 0 0 0 0 0 127 0" result="hardAlpha"/>
<feOffset dx="5" dy="5"/>
<feGaussianBlur stdDeviation="5"/>
<feColorMatrix type="matrix" values="0 0 0 0 0.666667 0 0 0 0 0.666667 0 0 0 0 0.8 0 0 0 0.5 0"/>
<feBlend mode="normal" in2="effect1_dropShadow_51_131" result="effect2_dropShadow_51_131"/>
<feBlend mode="normal" in="SourceGraphic" in2="effect2_dropShadow_51_131" result="shape"/>
</filter>
<clipPath id="clip0_51_131">
<rect width="318" height="62" rx="31" fill="white"/>
</clipPath>
</defs>
</svg>
