<svg width="318" height="62" viewBox="0 0 318 62" fill="none" xmlns="http://www.w3.org/2000/svg">
<g filter="url(#filter0_iiii_51_120)">
<g clip-path="url(#clip0_51_120)">
<rect width="318" height="62" rx="31" fill="#ECE2CD"/>
<path d="M74.8523 25.5881V22.5455H89.1875V25.5881H83.8438V40H80.196V25.5881H74.8523ZM95.5476 40.2557C94.201 40.2557 93.0419 39.983 92.0703 39.4375C91.1044 38.8864 90.3601 38.108 89.8374 37.1023C89.3146 36.0909 89.0533 34.8949 89.0533 33.5142C89.0533 32.1676 89.3146 30.9858 89.8374 29.9688C90.3601 28.9517 91.0959 28.1591 92.0447 27.5909C92.9993 27.0227 94.1186 26.7386 95.4027 26.7386C96.2663 26.7386 97.0703 26.8778 97.8146 27.1562C98.5646 27.429 99.218 27.8409 99.7749 28.392C100.337 28.9432 100.775 29.6364 101.087 30.4716C101.4 31.3011 101.556 32.2727 101.556 33.3864V34.3835H90.5021V32.1335H98.1385C98.1385 31.6108 98.0249 31.1477 97.7976 30.7443C97.5703 30.3409 97.255 30.0256 96.8516 29.7983C96.4538 29.5653 95.9908 29.4489 95.4624 29.4489C94.9112 29.4489 94.4226 29.5767 93.9964 29.8324C93.576 30.0824 93.2464 30.4205 93.0078 30.8466C92.7692 31.267 92.647 31.7358 92.6413 32.2528V34.392C92.6413 35.0398 92.7607 35.5994 92.9993 36.071C93.2436 36.5426 93.5874 36.9062 94.0305 37.1619C94.4737 37.4176 94.9993 37.5455 95.6072 37.5455C96.0107 37.5455 96.38 37.4886 96.7152 37.375C97.0504 37.2614 97.3374 37.0909 97.576 36.8636C97.8146 36.6364 97.9964 36.358 98.1214 36.0284L101.479 36.25C101.309 37.0568 100.96 37.7614 100.431 38.3636C99.9084 38.9602 99.2322 39.4261 98.4027 39.7614C97.5788 40.0909 96.6271 40.2557 95.5476 40.2557ZM106.725 26.9091L109.129 31.4858L111.592 26.9091H115.316L111.523 33.4545L115.418 40H111.711L109.129 35.4744L106.589 40H102.839L106.725 33.4545L102.975 26.9091H106.725ZM124.435 26.9091V29.6364H116.552V26.9091H124.435ZM118.342 23.7727H121.972V35.9773C121.972 36.3125 122.023 36.5739 122.126 36.7614C122.228 36.9432 122.37 37.071 122.552 37.1449C122.739 37.2187 122.955 37.2557 123.2 37.2557C123.37 37.2557 123.54 37.2415 123.711 37.2131C123.881 37.179 124.012 37.1534 124.103 37.1364L124.674 39.8381C124.492 39.8949 124.237 39.9602 123.907 40.0341C123.577 40.1136 123.177 40.1619 122.705 40.179C121.83 40.2131 121.063 40.0966 120.404 39.8295C119.751 39.5625 119.242 39.1477 118.879 38.5852C118.515 38.0227 118.336 37.3125 118.342 36.4545V23.7727Z" fill="#765946"/>
<path d="M51 35V29H48V27H56V29H53V35H51ZM41 42V36H43V26H41V20H47V22H57V20H63V26H61V36H63V42H57V40H47V42H41ZM47 38H57V36H59V26H57V24H47V26H45V36H47V38ZM43 24H45V22H43V24ZM59 24H61V22H59V24ZM59 40H61V38H59V40ZM43 40H45V38H43V40Z" fill="#765946"/>
<g filter="url(#filter1_dd_51_120)">
<g clip-path="url(#clip1_51_120)">
<rect x="159" y="10" width="137" height="41" rx="20.5" fill="#F5F5FA"/>
<path d="M196 28.025C194.8 28.025 193.65 27.7957 192.55 27.337C191.45 26.879 190.475 26.225 189.625 25.375C188.775 24.525 188.121 23.55 187.663 22.45C187.204 21.35 186.975 20.2 186.975 19H188.975C188.975 19.95 189.15 20.85 189.5 21.7C189.85 22.55 190.358 23.3083 191.025 23.975C191.692 24.6417 192.45 25.154 193.3 25.512C194.15 25.8707 195.05 26.05 196 26.05V28.025ZM196 24.05C195.317 24.05 194.671 23.925 194.062 23.675C193.454 23.425 192.908 23.0583 192.425 22.575C191.942 22.0917 191.575 21.5457 191.325 20.937C191.075 20.329 190.95 19.6833 190.95 19H192.925C192.925 19.4167 193.004 19.8127 193.163 20.188C193.321 20.5627 193.542 20.8917 193.825 21.175C194.108 21.4583 194.437 21.675 194.812 21.825C195.187 21.975 195.583 22.05 196 22.05V24.05ZM183 31C181.9 31 180.958 30.6083 180.175 29.825C179.392 29.0417 179 28.1 179 27C179 25.9 179.392 24.9583 180.175 24.175C180.958 23.3917 181.9 23 183 23C184.1 23 185.042 23.3917 185.825 24.175C186.608 24.9583 187 25.9 187 27C187 28.1 186.608 29.0417 185.825 29.825C185.042 30.6083 184.1 31 183 31ZM175 39V36.2C175 35.65 175.142 35.1333 175.425 34.65C175.708 34.1667 176.1 33.8 176.6 33.55C177.45 33.1167 178.408 32.75 179.475 32.45C180.542 32.15 181.717 32 183 32C184.283 32 185.458 32.15 186.525 32.45C187.592 32.75 188.55 33.1167 189.4 33.55C189.9 33.8 190.292 34.1667 190.575 34.65C190.858 35.1333 191 35.65 191 36.2V39H175Z" fill="#765946"/>
<path d="M211.526 38H207.571L213.597 20.5455H218.352L224.369 38H220.415L216.043 24.5341H215.906L211.526 38ZM211.278 31.1392H220.619V34.0199H211.278V31.1392ZM234.797 32.4261V24.9091H238.428V38H234.942V35.6222H234.805C234.51 36.3892 234.018 37.0057 233.331 37.4716C232.649 37.9375 231.817 38.1705 230.834 38.1705C229.959 38.1705 229.189 37.9716 228.524 37.5739C227.859 37.1761 227.339 36.6108 226.964 35.8778C226.595 35.1449 226.408 34.267 226.402 33.2443V24.9091H230.033V32.5966C230.038 33.3693 230.246 33.9801 230.655 34.429C231.064 34.8778 231.612 35.1023 232.3 35.1023C232.737 35.1023 233.146 35.0028 233.527 34.804C233.908 34.5994 234.214 34.2983 234.447 33.9006C234.686 33.5028 234.803 33.0114 234.797 32.4261ZM246.156 38.2131C245.161 38.2131 244.261 37.9574 243.454 37.446C242.653 36.929 242.016 36.1705 241.545 35.1705C241.079 34.1648 240.846 32.9318 240.846 31.4716C240.846 29.9716 241.087 28.7244 241.57 27.7301C242.053 26.7301 242.695 25.983 243.496 25.4886C244.303 24.9886 245.187 24.7386 246.147 24.7386C246.88 24.7386 247.491 24.8636 247.979 25.1136C248.474 25.358 248.871 25.6648 249.173 26.0341C249.479 26.3977 249.712 26.7557 249.871 27.108H249.982V20.5455H253.604V38H250.025V35.9034H249.871C249.701 36.267 249.46 36.6278 249.147 36.9858C248.84 37.3381 248.44 37.6307 247.945 37.8636C247.457 38.0966 246.86 38.2131 246.156 38.2131ZM247.306 35.3239C247.891 35.3239 248.386 35.1648 248.789 34.8466C249.198 34.5227 249.511 34.071 249.727 33.4915C249.948 32.9119 250.059 32.233 250.059 31.4545C250.059 30.6761 249.951 30 249.735 29.4261C249.519 28.8523 249.207 28.4091 248.798 28.0966C248.388 27.7841 247.891 27.6278 247.306 27.6278C246.71 27.6278 246.207 27.7898 245.798 28.1136C245.388 28.4375 245.079 28.8864 244.869 29.4602C244.658 30.0341 244.553 30.6989 244.553 31.4545C244.553 32.2159 244.658 32.8892 244.869 33.4744C245.085 34.054 245.394 34.5085 245.798 34.8381C246.207 35.1619 246.71 35.3239 247.306 35.3239ZM256.589 38V24.9091H260.22V38H256.589ZM258.413 23.2216C257.874 23.2216 257.411 23.0426 257.024 22.6847C256.643 22.321 256.453 21.8864 256.453 21.3807C256.453 20.8807 256.643 20.4517 257.024 20.0938C257.411 19.7301 257.874 19.5483 258.413 19.5483C258.953 19.5483 259.413 19.7301 259.794 20.0938C260.18 20.4517 260.374 20.8807 260.374 21.3807C260.374 21.8864 260.18 22.321 259.794 22.6847C259.413 23.0426 258.953 23.2216 258.413 23.2216ZM269.043 38.2557C267.719 38.2557 266.575 37.9744 265.609 37.4119C264.648 36.8437 263.907 36.054 263.384 35.0426C262.862 34.0256 262.6 32.8466 262.6 31.5057C262.6 30.1534 262.862 28.9716 263.384 27.9602C263.907 26.9432 264.648 26.1534 265.609 25.5909C266.575 25.0227 267.719 24.7386 269.043 24.7386C270.367 24.7386 271.509 25.0227 272.469 25.5909C273.435 26.1534 274.18 26.9432 274.702 27.9602C275.225 28.9716 275.487 30.1534 275.487 31.5057C275.487 32.8466 275.225 34.0256 274.702 35.0426C274.18 36.054 273.435 36.8437 272.469 37.4119C271.509 37.9744 270.367 38.2557 269.043 38.2557ZM269.06 35.4432C269.663 35.4432 270.165 35.2727 270.569 34.9318C270.972 34.5852 271.276 34.1136 271.481 33.517C271.691 32.9205 271.796 32.2415 271.796 31.4801C271.796 30.7188 271.691 30.0398 271.481 29.4432C271.276 28.8466 270.972 28.375 270.569 28.0284C270.165 27.6818 269.663 27.5085 269.06 27.5085C268.452 27.5085 267.941 27.6818 267.526 28.0284C267.117 28.375 266.808 28.8466 266.597 29.4432C266.393 30.0398 266.29 30.7188 266.29 31.4801C266.29 32.2415 266.393 32.9205 266.597 33.517C266.808 34.1136 267.117 34.5852 267.526 34.9318C267.941 35.2727 268.452 35.4432 269.06 35.4432Z" fill="#765946"/>
</g>
</g>
</g>
</g>
<defs>
<filter id="filter0_iiii_51_120" x="-5" y="-5" width="328" height="72" filterUnits="userSpaceOnUse" color-interpolation-filters="sRGB">
<feFlood flood-opacity="0" result="BackgroundImageFix"/>
<feBlend mode="normal" in="SourceGraphic" in2="BackgroundImageFix" result="shape"/>
<feColorMatrix in="SourceAlpha" type="matrix" values="0 0 0 0 0 0 0 0 0 0 0 0 0 0 0 0 0 0 127 0" result="hardAlpha"/>
<feOffset dx="-5" dy="-5"/>
<feGaussianBlur stdDeviation="5"/>
<feComposite in2="hardAlpha" operator="arithmetic" k2="-1" k3="1"/>
<feColorMatrix type="matrix" values="0 0 0 0 0.995833 0 0 0 0 0.979789 0 0 0 0 0.947702 0 0 0 1 0"/>
<feBlend mode="normal" in2="shape" result="effect1_innerShadow_51_120"/>
<feColorMatrix in="SourceAlpha" type="matrix" values="0 0 0 0 0 0 0 0 0 0 0 0 0 0 0 0 0 0 127 0" result="hardAlpha"/>
<feOffset dx="5" dy="5"/>
<feGaussianBlur stdDeviation="5"/>
<feComposite in2="hardAlpha" operator="arithmetic" k2="-1" k3="1"/>
<feColorMatrix type="matrix" values="0 0 0 0 0.996078 0 0 0 0 0.980392 0 0 0 0 0.94902 0 0 0 0.5 0"/>
<feBlend mode="normal" in2="effect1_innerShadow_51_120" result="effect2_innerShadow_51_120"/>
<feColorMatrix in="SourceAlpha" type="matrix" values="0 0 0 0 0 0 0 0 0 0 0 0 0 0 0 0 0 0 127 0" result="hardAlpha"/>
<feOffset dx="2" dy="2"/>
<feGaussianBlur stdDeviation="2"/>
<feComposite in2="hardAlpha" operator="arithmetic" k2="-1" k3="1"/>
<feColorMatrix type="matrix" values="0 0 0 0 0.666667 0 0 0 0 0.666667 0 0 0 0 0.8 0 0 0 0.25 0"/>
<feBlend mode="normal" in2="effect2_innerShadow_51_120" result="effect3_innerShadow_51_120"/>
<feColorMatrix in="SourceAlpha" type="matrix" values="0 0 0 0 0 0 0 0 0 0 0 0 0 0 0 0 0 0 127 0" result="hardAlpha"/>
<feOffset dx="-2" dy="-2"/>
<feGaussianBlur stdDeviation="2"/>
<feComposite in2="hardAlpha" operator="arithmetic" k2="-1" k3="1"/>
<feColorMatrix type="matrix" values="0 0 0 0 1 0 0 0 0 1 0 0 0 0 1 0 0 0 0.5 0"/>
<feBlend mode="normal" in2="effect3_innerShadow_51_120" result="effect4_innerShadow_51_120"/>
</filter>
<filter id="filter1_dd_51_120" x="144" y="-5" width="167" height="71" filterUnits="userSpaceOnUse" color-interpolation-filters="sRGB">
<feFlood flood-opacity="0" result="BackgroundImageFix"/>
<feColorMatrix in="SourceAlpha" type="matrix" values="0 0 0 0 0 0 0 0 0 0 0 0 0 0 0 0 0 0 127 0" result="hardAlpha"/>
<feOffset dx="-5" dy="-5"/>
<feGaussianBlur stdDeviation="5"/>
<feColorMatrix type="matrix" values="0 0 0 0 1 0 0 0 0 1 0 0 0 0 1 0 0 0 1 0"/>
<feBlend mode="normal" in2="BackgroundImageFix" result="effect1_dropShadow_51_120"/>
<feColorMatrix in="SourceAlpha" type="matrix" values="0 0 0 0 0 0 0 0 0 0 0 0 0 0 0 0 0 0 127 0" result="hardAlpha"/>
<feOffset dx="5" dy="5"/>
<feGaussianBlur stdDeviation="5"/>
<feColorMatrix type="matrix" values="0 0 0 0 0.666667 0 0 0 0 0.666667 0 0 0 0 0.8 0 0 0 0.5 0"/>
<feBlend mode="normal" in2="effect1_dropShadow_51_120" result="effect2_dropShadow_51_120"/>
<feBlend mode="normal" in="SourceGraphic" in2="effect2_dropShadow_51_120" result="shape"/>
</filter>
<clipPath id="clip0_51_120">
<rect width="318" height="62" rx="31" fill="white"/>
</clipPath>
<clipPath id="clip1_51_120">
<rect x="159" y="10" width="137" height="41" rx="20.5" fill="white"/>
</clipPath>
</defs>
</svg>
